<mxfile host="app.diagrams.net" modified="2024-07-19T23:41:21.351Z" agent="Mozilla/5.0 (Macintosh; Intel Mac OS X 10_15_7) AppleWebKit/605.1.15 (KHTML, like Gecko) Version/17.3.1 Safari/605.1.15" version="24.7.2" etag="ko6eYnZCi4Yb9AAboU7Q" type="github">
  <diagram name="Page-1" id="OroOST29Tq-QH-sH5zzZ">
    <mxGraphModel>
      <root>
        <mxCell id="0" />
        <mxCell id="1" parent="0" />
      </root>
    </mxGraphModel>
  </diagram>
</mxfile>
